<?xml version="1.0" standalone="no"?>
<!DOCTYPE svg PUBLIC "-//W3C//DTD SVG 20010904//EN"
 "http://www.w3.org/TR/2001/REC-SVG-20010904/DTD/svg10.dtd">
<svg version="1.0" xmlns="http://www.w3.org/2000/svg"
 width="512.000000pt" height="512.000000pt" viewBox="0 0 512.000000 512.000000"
 preserveAspectRatio="xMidYMid meet">
<metadata>
Created by potrace 1.14, written by Peter Selinger 2001-2017
</metadata>
<g transform="translate(0.000000,512.000000) scale(0.100000,-0.100000)"
fill="#000000" stroke="none">
<path d="M40 4968 c0 -5 20 -63 44 -131 44 -123 92 -257 251 -707 47 -135 95
-267 105 -295 43 -116 140 -393 140 -400 0 -4 6 -21 14 -38 8 -18 33 -86 56
-152 23 -66 50 -142 60 -170 10 -27 37 -102 58 -165 22 -63 59 -167 82 -230
23 -63 47 -133 55 -155 11 -36 72 -207 141 -400 14 -38 43 -122 65 -185 22
-63 49 -137 59 -165 11 -27 44 -120 74 -205 129 -367 228 -648 243 -685 8 -22
21 -60 29 -85 8 -25 19 -54 24 -65 4 -11 47 -130 94 -265 47 -135 104 -294
125 -355 l39 -110 761 -3 c419 -1 761 0 761 2 0 2 147 417 326 923 180 505
352 992 384 1083 32 91 65 183 73 205 9 22 61 171 117 330 56 160 121 344 145
410 57 157 65 180 330 930 125 352 262 739 305 860 43 121 77 222 75 225 -2 4
-290 6 -640 6 l-636 -1 -43 -130 c-24 -71 -163 -492 -309 -935 -147 -443 -307
-929 -357 -1080 -50 -151 -93 -279 -94 -285 -2 -5 -6 -17 -9 -25 -3 -8 -99
-298 -212 -645 -114 -346 -210 -633 -214 -637 -4 -5 -38 88 -76 205 -38 116
-121 372 -186 567 -64 195 -190 578 -279 850 -89 272 -186 567 -215 655 -29
88 -112 342 -185 565 -72 223 -135 414 -140 425 -5 11 -42 121 -82 245 l-73
225 -642 1 c-354 0 -643 -4 -643 -8z"/>
</g>
</svg>
